<svg xmlns="http://www.w3.org/2000/svg" xmlns:xlink="http://www.w3.org/1999/xlink" id="svg" version="1.1" width="400" height="88.4" viewBox="0, 0, 400,88.4 undefined"><g id="svgg"><path id="path0" d="M64.901 20.214 C 62.657 21.865,62.245 22.191,61.007 23.302 C 59.005 25.097,57.017 27.153,55.500 28.997 C 55.087 29.498,54.642 30.023,54.511 30.163 C 54.380 30.302,53.760 31.106,53.134 31.950 C 51.752 33.812,51.821 33.767,50.862 33.421 C 49.600 32.967,49.559 32.948,46.094 31.255 C 41.589 29.054,40.295 28.773,37.988 29.491 C 36.025 30.102,34.753 31.262,33.593 33.500 C 32.962 34.717,32.730 34.964,31.837 35.363 C 28.838 36.705,25.053 38.592,23.926 39.309 C 22.931 39.942,22.675 39.958,22.169 39.419 C 20.920 38.090,17.167 39.666,17.167 41.521 C 17.167 44.108,19.428 44.130,21.815 41.566 C 22.881 40.421,22.982 40.358,24.917 39.624 C 33.344 36.430,35.438 36.184,37.344 38.165 C 37.902 38.745,38.019 39.016,38.706 41.333 C 38.802 41.654,38.935 42.067,39.003 42.250 C 39.071 42.433,39.333 43.146,39.585 43.833 C 41.251 48.377,43.832 51.111,47.417 52.129 C 51.825 53.381,53.271 54.020,54.013 55.045 C 54.981 56.381,54.567 57.977,52.647 60.303 C 52.400 60.602,52.567 60.726,52.942 60.522 C 53.111 60.430,54.337 59.815,55.667 59.155 C 61.194 56.413,63.454 54.742,63.290 53.517 C 63.110 52.174,61.631 48.881,60.397 47.072 C 59.702 46.056,59.771 45.744,60.719 45.601 C 62.243 45.371,66.564 44.149,67.440 43.700 C 67.610 43.613,68.313 43.258,69.000 42.912 C 70.591 42.111,71.815 41.336,73.107 40.311 C 73.670 39.865,74.251 39.500,74.399 39.500 C 74.546 39.500,74.667 39.387,74.667 39.250 C 74.667 39.112,74.742 39.000,74.833 39.000 C 74.943 39.000,75.000 35.633,75.000 29.232 L 75.000 19.464 74.581 19.569 C 74.207 19.663,71.841 21.164,69.118 23.034 C 67.907 23.867,67.851 23.839,67.280 22.145 C 66.555 19.994,66.297 19.333,66.186 19.339 C 66.129 19.343,65.551 19.736,64.901 20.214 " stroke="none" fill="#fafbfb" fill-rule="evenodd"/><path id="path1" d="M41.250 6.833 C 41.193 6.925,40.781 7.000,40.333 7.000 C 39.886 7.000,39.473 7.075,39.417 7.167 C 39.360 7.258,38.981 7.333,38.573 7.333 C 38.027 7.333,37.833 7.399,37.833 7.583 C 37.833 7.772,37.630 7.833,37.000 7.833 C 36.542 7.833,36.167 7.908,36.167 8.000 C 36.167 8.092,35.939 8.167,35.661 8.167 C 35.366 8.167,35.116 8.271,35.060 8.417 C 35.001 8.571,34.748 8.667,34.399 8.667 C 34.088 8.667,33.833 8.742,33.833 8.833 C 33.833 8.925,33.571 9.000,33.250 9.000 C 32.929 9.000,32.667 9.075,32.667 9.167 C 32.667 9.258,32.402 9.333,32.078 9.333 C 31.709 9.333,31.454 9.426,31.394 9.583 C 31.334 9.738,31.081 9.833,30.732 9.833 C 30.421 9.833,30.167 9.900,30.167 9.981 C 30.167 10.063,29.904 10.179,29.583 10.239 C 29.262 10.299,29.000 10.420,29.000 10.508 C 29.000 10.595,28.813 10.667,28.583 10.667 C 28.354 10.667,28.167 10.742,28.167 10.833 C 28.167 10.925,27.904 11.000,27.583 11.000 C 27.262 11.000,27.000 11.067,27.000 11.148 C 27.000 11.230,26.738 11.345,26.417 11.406 C 26.096 11.466,25.833 11.587,25.833 11.674 C 25.833 11.762,25.646 11.833,25.417 11.833 C 25.188 11.833,25.000 11.908,25.000 12.000 C 25.000 12.092,24.822 12.167,24.604 12.167 C 24.386 12.167,24.114 12.279,24.000 12.417 C 23.886 12.554,23.620 12.667,23.410 12.667 C 23.200 12.667,23.003 12.736,22.972 12.822 C 22.942 12.907,22.692 13.001,22.417 13.030 C 22.142 13.059,21.813 13.181,21.687 13.301 C 21.560 13.421,21.354 13.480,21.229 13.431 C 21.099 13.382,21.000 13.450,21.000 13.589 C 21.000 13.735,20.841 13.833,20.602 13.833 C 20.384 13.833,19.995 13.942,19.739 14.075 C 19.483 14.208,19.210 14.277,19.133 14.229 C 19.055 14.181,19.012 14.241,19.038 14.363 C 19.071 14.523,18.799 14.597,18.042 14.633 C 17.469 14.660,17.000 14.754,17.000 14.841 C 17.000 14.929,16.719 15.002,16.375 15.005 C 16.031 15.008,15.608 15.118,15.434 15.250 C 15.260 15.382,15.054 15.450,14.975 15.401 C 14.897 15.353,14.833 15.395,14.833 15.495 C 14.833 15.595,14.702 15.727,14.542 15.788 C 14.185 15.923,13.833 16.257,13.833 16.460 C 13.833 16.543,13.646 16.711,13.417 16.833 C 13.155 16.973,13.000 17.201,13.000 17.445 C 13.000 17.659,12.925 17.833,12.833 17.833 C 12.604 17.833,12.604 37.108,12.833 37.250 C 12.934 37.312,13.000 38.525,13.000 40.329 C 13.000 42.023,13.067 43.330,13.156 43.361 C 13.241 43.392,13.330 44.268,13.354 45.309 C 13.385 46.685,13.456 47.224,13.615 47.285 C 13.769 47.344,13.833 47.747,13.833 48.651 C 13.833 49.356,13.904 50.005,13.990 50.092 C 14.077 50.179,14.165 50.641,14.187 51.118 C 14.211 51.655,14.310 52.019,14.446 52.072 C 14.571 52.120,14.667 52.410,14.667 52.745 C 14.667 53.068,14.742 53.333,14.833 53.333 C 14.925 53.333,15.000 53.477,15.000 53.653 C 15.000 54.014,15.517 54.997,15.708 54.999 C 15.777 55.000,15.833 55.106,15.833 55.236 C 15.833 55.534,16.374 56.498,16.542 56.499 C 16.610 56.500,16.667 56.580,16.667 56.679 C 16.667 56.777,16.760 56.962,16.875 57.089 C 17.376 57.648,17.506 57.833,17.396 57.833 C 17.332 57.833,17.573 58.115,17.931 58.460 C 18.290 58.805,18.696 59.311,18.833 59.585 C 19.092 60.100,19.411 60.500,19.563 60.500 C 19.692 60.500,20.748 61.611,21.107 62.123 C 21.277 62.366,21.614 62.773,21.855 63.025 C 22.096 63.278,22.252 63.526,22.202 63.576 C 22.152 63.626,22.231 63.667,22.378 63.667 C 22.524 63.667,22.816 63.910,23.026 64.208 C 23.401 64.741,25.105 66.500,25.246 66.500 C 25.394 66.500,26.243 67.422,26.206 67.542 C 26.184 67.610,26.279 67.667,26.417 67.667 C 26.554 67.667,26.667 67.784,26.667 67.927 C 26.667 68.069,26.732 68.146,26.811 68.097 C 26.891 68.048,27.127 68.231,27.336 68.504 C 27.545 68.777,27.818 69.000,27.942 69.000 C 28.065 69.000,28.167 69.075,28.167 69.167 C 28.167 69.258,28.247 69.333,28.345 69.333 C 28.576 69.333,29.000 69.757,29.000 69.988 C 29.000 70.086,29.085 70.167,29.189 70.167 C 29.388 70.167,30.166 70.995,30.166 71.208 C 30.167 71.277,30.237 71.333,30.324 71.333 C 30.410 71.333,30.823 71.671,31.241 72.083 C 31.660 72.496,32.081 72.833,32.177 72.833 C 32.274 72.833,32.310 72.903,32.257 72.988 C 32.205 73.073,32.328 73.195,32.531 73.260 C 32.963 73.397,33.333 73.733,33.333 73.988 C 33.333 74.086,33.418 74.167,33.522 74.167 C 33.626 74.167,33.958 74.429,34.261 74.750 C 34.563 75.071,34.873 75.333,34.949 75.333 C 35.025 75.333,35.228 75.521,35.400 75.750 C 35.573 75.979,35.815 76.167,35.940 76.167 C 36.065 76.167,36.167 76.242,36.167 76.333 C 36.167 76.425,36.279 76.500,36.417 76.500 C 36.554 76.500,36.667 76.578,36.667 76.674 C 36.667 76.937,37.450 77.667,37.731 77.667 C 37.867 77.667,38.025 77.816,38.083 78.000 C 38.141 78.183,38.371 78.378,38.594 78.434 C 38.817 78.490,39.000 78.641,39.000 78.768 C 39.000 78.896,39.117 79.000,39.260 79.000 C 39.403 79.000,39.473 79.075,39.417 79.167 C 39.360 79.258,39.431 79.333,39.573 79.333 C 39.716 79.333,39.833 79.408,39.833 79.500 C 39.833 79.592,39.947 79.667,40.087 79.667 C 40.226 79.667,40.426 79.854,40.530 80.083 C 40.635 80.313,40.840 80.500,40.987 80.500 C 41.133 80.500,41.477 80.761,41.752 81.080 C 42.026 81.399,42.344 81.661,42.458 81.663 C 42.573 81.665,42.667 81.784,42.667 81.927 C 42.667 82.069,42.731 82.147,42.809 82.099 C 42.887 82.050,43.093 82.118,43.267 82.250 C 43.735 82.604,43.910 82.559,44.572 81.917 C 44.902 81.596,45.251 81.333,45.346 81.333 C 45.442 81.333,45.478 81.266,45.427 81.184 C 45.337 81.038,45.797 80.755,46.042 80.807 C 46.110 80.821,46.158 80.777,46.147 80.708 C 46.094 80.376,46.183 80.157,46.333 80.250 C 46.425 80.307,46.500 80.280,46.500 80.190 C 46.500 80.101,46.406 79.990,46.292 79.944 C 46.177 79.897,46.158 79.854,46.250 79.847 C 46.360 79.838,46.401 75.128,46.371 65.980 L 46.326 52.126 46.788 52.237 C 47.042 52.298,47.550 52.425,47.917 52.520 C 48.283 52.614,48.846 52.723,49.167 52.762 C 49.754 52.834,49.490 52.740,47.417 52.134 C 43.799 51.078,41.251 48.377,39.585 43.833 C 39.333 43.146,39.069 42.433,38.997 42.250 C 38.925 42.067,38.739 41.467,38.583 40.917 C 38.066 39.089,37.921 38.770,37.333 38.156 C 35.444 36.184,33.332 36.434,24.917 39.624 C 22.982 40.358,22.881 40.421,21.815 41.566 C 19.428 44.130,17.167 44.108,17.167 41.521 C 17.167 39.666,20.920 38.090,22.169 39.419 C 22.675 39.958,22.931 39.942,23.926 39.309 C 25.053 38.592,28.838 36.705,31.837 35.363 C 32.730 34.964,32.962 34.717,33.593 33.500 C 34.753 31.262,36.025 30.102,37.988 29.491 C 40.299 28.772,41.630 29.062,46.003 31.238 C 47.774 32.120,49.293 32.819,49.378 32.791 C 49.462 32.763,49.318 32.640,49.057 32.517 C 48.797 32.395,48.471 32.230,48.333 32.150 C 48.196 32.071,47.777 31.858,47.402 31.678 C 46.253 31.124,46.325 32.012,46.373 18.960 C 46.406 9.816,46.370 6.999,46.215 6.855 C 45.958 6.614,41.398 6.595,41.250 6.833 M64.417 20.431 L 63.917 20.861 64.458 20.502 C 64.756 20.305,65.000 20.112,65.000 20.072 C 65.000 19.947,64.929 19.991,64.417 20.431 M72.417 20.678 C 72.142 20.854,72.002 20.999,72.107 20.999 C 72.211 21.000,72.473 20.852,72.690 20.672 C 73.185 20.259,73.066 20.262,72.417 20.678 M63.083 21.442 C 62.581 21.890,62.544 21.952,62.931 21.693 C 63.392 21.385,63.972 20.824,63.812 20.840 C 63.778 20.843,63.450 21.114,63.083 21.442 M68.667 23.167 C 68.183 23.545,67.896 23.585,67.777 23.292 C 67.711 23.128,67.690 23.130,67.680 23.297 C 67.655 23.706,68.149 23.691,68.778 23.264 C 69.126 23.027,69.337 22.835,69.247 22.837 C 69.157 22.839,68.896 22.987,68.667 23.167 M60.242 23.875 L 59.583 24.583 60.292 23.925 C 60.950 23.312,61.077 23.167,60.950 23.167 C 60.923 23.167,60.605 23.485,60.242 23.875 M57.324 26.792 L 56.750 27.417 57.375 26.842 C 57.719 26.526,58.000 26.245,58.000 26.217 C 58.000 26.090,57.859 26.210,57.324 26.792 M53.281 31.514 C 53.023 31.873,52.845 32.167,52.886 32.167 C 53.001 32.167,53.875 30.986,53.808 30.920 C 53.776 30.888,53.539 31.155,53.281 31.514 M52.333 32.833 C 52.138 33.108,52.015 33.333,52.061 33.333 C 52.106 33.333,52.304 33.108,52.500 32.833 C 52.696 32.558,52.819 32.333,52.773 32.333 C 52.727 32.333,52.529 32.558,52.333 32.833 M71.338 41.592 C 71.020 41.816,70.832 42.000,70.921 41.999 C 71.010 41.999,71.308 41.814,71.583 41.588 C 72.225 41.062,72.085 41.064,71.338 41.592 M69.292 42.762 C 68.669 43.100,68.707 43.241,69.333 42.917 C 69.608 42.774,69.833 42.623,69.833 42.579 C 69.833 42.472,69.815 42.478,69.292 42.762 M67.260 43.755 C 66.844 44.070,66.998 44.068,67.606 43.751 C 67.869 43.614,67.971 43.504,67.833 43.506 C 67.696 43.509,67.438 43.621,67.260 43.755 M62.083 45.333 C 61.873 45.424,61.842 45.477,62.000 45.477 C 62.137 45.477,62.400 45.412,62.583 45.333 C 62.793 45.243,62.824 45.190,62.667 45.190 C 62.529 45.190,62.267 45.255,62.083 45.333 M59.930 45.943 C 59.835 46.189,60.530 47.500,60.755 47.500 C 60.801 47.500,60.634 47.192,60.385 46.815 C 59.945 46.150,59.941 46.122,60.247 45.898 C 60.506 45.709,60.515 45.667,60.300 45.667 C 60.154 45.667,59.988 45.791,59.930 45.943 M61.083 48.167 C 61.226 48.442,61.379 48.667,61.425 48.667 C 61.471 48.667,61.392 48.442,61.250 48.167 C 61.108 47.892,60.954 47.667,60.908 47.667 C 60.862 47.667,60.941 47.892,61.083 48.167 M62.573 55.042 L 62.083 55.583 62.625 55.094 C 62.923 54.825,63.167 54.581,63.167 54.552 C 63.167 54.423,63.029 54.537,62.573 55.042 M53.648 58.708 C 53.540 58.915,53.155 59.439,52.794 59.874 C 52.091 60.721,52.233 61.156,53.029 60.598 C 53.237 60.453,53.331 60.333,53.237 60.333 C 53.143 60.333,52.978 60.422,52.869 60.531 C 52.611 60.789,52.413 60.587,52.647 60.303 C 53.531 59.232,54.115 58.333,53.928 58.333 C 53.883 58.333,53.756 58.502,53.648 58.708 " stroke="none" fill="#29a6de" fill-rule="evenodd"/><path id="path2" d="M49.000 7.593 C 49.000 7.753,49.080 7.808,49.208 7.735 C 49.375 7.641,49.375 7.663,49.208 7.842 C 48.941 8.131,48.900 32.167,49.167 32.167 C 49.258 32.167,49.333 32.279,49.333 32.417 C 49.333 32.573,49.491 32.667,49.752 32.667 C 49.983 32.667,50.301 32.732,50.461 32.811 C 51.031 33.095,51.833 33.302,51.833 33.164 C 51.833 33.087,51.931 32.925,52.050 32.804 C 52.169 32.682,52.512 32.223,52.813 31.783 C 53.114 31.343,53.561 30.777,53.805 30.525 C 54.050 30.273,54.472 29.770,54.744 29.408 C 55.015 29.046,55.465 28.523,55.744 28.246 C 56.022 27.968,56.446 27.481,56.686 27.162 C 57.217 26.457,60.422 23.278,61.000 22.883 C 61.229 22.726,61.611 22.406,61.847 22.173 C 62.084 21.939,62.553 21.560,62.888 21.332 C 63.223 21.104,63.498 20.860,63.499 20.792 C 63.499 20.723,63.612 20.667,63.750 20.667 C 63.887 20.667,64.000 20.610,64.000 20.540 C 64.000 20.471,64.491 20.081,65.092 19.673 L 66.184 18.933 66.586 19.425 C 66.807 19.695,66.991 20.081,66.994 20.282 C 66.997 20.483,67.075 20.693,67.167 20.750 C 67.258 20.807,67.333 21.069,67.333 21.333 C 67.333 21.598,67.403 21.856,67.487 21.909 C 67.572 21.961,67.689 22.223,67.748 22.490 C 67.908 23.222,68.207 23.393,68.631 22.997 C 68.827 22.815,69.021 22.667,69.063 22.667 C 69.105 22.667,70.102 22.020,71.278 21.229 C 73.777 19.549,74.421 19.167,74.755 19.167 C 75.034 19.167,75.098 18.414,74.833 18.250 C 74.742 18.193,74.667 17.999,74.667 17.818 C 74.667 17.637,74.554 17.446,74.417 17.394 C 74.279 17.341,74.167 17.188,74.167 17.054 C 74.167 16.778,73.773 16.333,73.530 16.333 C 73.441 16.333,73.326 16.221,73.273 16.083 C 73.220 15.946,73.062 15.833,72.922 15.833 C 72.782 15.833,72.667 15.773,72.667 15.699 C 72.667 15.495,71.447 15.000,70.944 15.000 C 70.700 15.000,70.500 14.925,70.500 14.833 C 70.500 14.741,70.061 14.667,69.518 14.667 C 68.799 14.667,68.510 14.600,68.440 14.417 C 68.384 14.271,68.134 14.167,67.839 14.167 C 67.561 14.167,67.333 14.092,67.333 14.000 C 67.333 13.908,67.154 13.833,66.934 13.833 C 66.715 13.833,66.492 13.721,66.440 13.583 C 66.384 13.437,66.134 13.333,65.839 13.333 C 65.561 13.333,65.333 13.258,65.333 13.167 C 65.333 13.075,65.188 13.000,65.010 13.000 C 64.832 13.000,64.640 12.925,64.583 12.833 C 64.527 12.742,64.222 12.667,63.907 12.667 C 63.508 12.667,63.333 12.590,63.333 12.417 C 63.333 12.261,63.176 12.167,62.917 12.167 C 62.688 12.167,62.500 12.092,62.500 12.000 C 62.500 11.908,62.237 11.833,61.917 11.833 C 61.509 11.833,61.333 11.758,61.333 11.583 C 61.333 11.429,61.177 11.333,60.927 11.333 C 60.703 11.333,60.473 11.258,60.417 11.167 C 60.360 11.075,60.093 11.000,59.823 11.000 C 59.554 11.000,59.333 10.925,59.333 10.833 C 59.333 10.742,59.071 10.667,58.750 10.667 C 58.343 10.667,58.167 10.591,58.167 10.417 C 58.167 10.242,57.991 10.167,57.583 10.167 C 57.262 10.167,57.000 10.092,57.000 10.000 C 57.000 9.908,56.822 9.833,56.604 9.833 C 56.386 9.833,56.121 9.729,56.015 9.601 C 55.834 9.383,55.487 9.278,54.208 9.057 C 53.910 9.006,53.667 8.897,53.667 8.815 C 53.667 8.733,53.412 8.667,53.101 8.667 C 52.752 8.667,52.499 8.571,52.440 8.417 C 52.376 8.252,52.115 8.167,51.672 8.167 C 51.302 8.167,51.000 8.092,51.000 8.000 C 51.000 7.908,50.746 7.833,50.434 7.833 C 50.086 7.833,49.832 7.738,49.773 7.583 C 49.645 7.250,49.000 7.258,49.000 7.593 M74.139 39.793 C 74.108 39.862,73.746 40.179,73.333 40.497 C 72.921 40.815,72.546 41.123,72.500 41.182 C 72.454 41.241,72.002 41.543,71.496 41.853 C 70.990 42.163,70.427 42.507,70.246 42.618 C 69.313 43.189,66.419 44.500,66.091 44.500 C 65.947 44.500,65.699 44.565,65.539 44.644 C 64.945 44.941,64.064 45.214,63.458 45.290 C 63.115 45.333,62.833 45.435,62.833 45.518 C 62.833 45.600,62.552 45.668,62.208 45.669 C 61.865 45.671,61.303 45.769,60.961 45.888 C 60.300 46.119,59.984 46.333,60.306 46.333 C 60.412 46.333,60.500 46.421,60.500 46.529 C 60.500 46.636,60.605 46.842,60.733 46.987 C 61.075 47.372,61.910 48.897,62.337 49.917 C 62.718 50.827,63.047 51.579,63.191 51.873 C 63.269 52.032,63.333 52.351,63.333 52.581 C 63.333 52.811,63.408 53.000,63.500 53.000 C 64.417 53.000,62.801 55.723,61.671 56.082 C 61.486 56.141,61.333 56.259,61.333 56.345 C 61.333 56.430,61.227 56.500,61.097 56.500 C 60.967 56.500,60.836 56.556,60.806 56.625 C 60.744 56.763,59.395 57.667,59.250 57.667 C 59.201 57.667,58.863 57.854,58.500 58.083 C 58.137 58.313,57.732 58.500,57.601 58.500 C 57.469 58.500,57.336 58.556,57.306 58.625 C 57.232 58.792,53.804 60.509,53.556 60.504 C 53.449 60.502,53.336 60.556,53.306 60.625 C 53.209 60.842,52.144 61.339,51.985 61.241 C 51.662 61.041,51.877 60.547,52.672 59.667 C 53.127 59.163,53.500 58.656,53.500 58.542 C 53.500 58.427,53.557 58.333,53.626 58.333 C 53.761 58.333,54.136 57.363,54.278 56.647 C 54.421 55.926,53.067 54.167,52.370 54.167 C 52.280 54.167,52.114 54.054,52.000 53.917 C 51.886 53.779,51.581 53.667,51.323 53.667 C 51.064 53.667,50.807 53.592,50.750 53.500 C 50.693 53.408,50.389 53.333,50.073 53.333 C 49.758 53.333,49.500 53.258,49.500 53.167 C 49.500 53.075,49.385 53.000,49.244 53.000 C 49.016 53.000,48.994 54.355,49.036 65.500 C 49.062 72.375,49.027 78.000,48.958 78.000 C 48.890 78.000,48.833 78.118,48.833 78.262 C 48.833 78.495,48.861 78.496,49.083 78.274 C 49.221 78.136,49.333 77.943,49.333 77.845 C 49.333 77.747,49.429 77.667,49.547 77.667 C 49.664 77.667,49.868 77.517,50.000 77.333 C 50.132 77.150,50.318 77.000,50.413 77.000 C 50.509 77.000,50.789 76.813,51.036 76.583 C 51.283 76.354,51.564 76.167,51.659 76.167 C 51.755 76.167,51.833 76.082,51.833 75.978 C 51.833 75.778,52.662 75.001,52.875 75.000 C 52.944 75.000,53.000 74.920,53.000 74.821 C 53.000 74.601,53.420 74.167,53.634 74.167 C 53.721 74.167,54.078 73.904,54.428 73.583 C 54.779 73.262,55.125 73.000,55.199 73.000 C 55.273 73.000,55.333 72.887,55.333 72.750 C 55.333 72.612,55.414 72.500,55.512 72.500 C 55.743 72.500,56.167 72.076,56.167 71.845 C 56.167 71.747,56.245 71.667,56.341 71.667 C 56.567 71.667,57.333 70.900,57.333 70.674 C 57.333 70.578,57.446 70.500,57.583 70.500 C 57.721 70.500,57.833 70.425,57.833 70.333 C 57.833 70.242,57.948 70.167,58.089 70.167 C 58.229 70.167,58.387 70.054,58.440 69.917 C 58.492 69.779,58.599 69.667,58.677 69.667 C 58.875 69.667,60.586 67.944,60.539 67.792 C 60.517 67.723,60.580 67.667,60.678 67.667 C 60.776 67.667,61.450 67.067,62.177 66.333 C 62.903 65.600,63.573 65.000,63.665 65.000 C 63.758 65.000,63.833 64.934,63.833 64.854 C 63.833 64.774,64.621 63.900,65.583 62.913 C 66.546 61.925,67.333 60.979,67.333 60.809 C 67.333 60.639,67.412 60.500,67.508 60.500 C 67.692 60.500,69.333 58.923,69.333 58.746 C 69.333 58.689,69.427 58.538,69.542 58.411 C 69.973 57.929,70.167 57.678,70.167 57.599 C 70.167 57.554,70.354 57.315,70.583 57.068 C 70.813 56.820,71.000 56.551,71.000 56.469 C 71.000 56.387,71.153 56.155,71.341 55.954 C 71.728 55.538,72.167 54.717,72.167 54.409 C 72.167 54.295,72.279 54.159,72.417 54.106 C 72.554 54.054,72.667 53.858,72.667 53.672 C 72.667 53.486,72.742 53.333,72.833 53.333 C 72.925 53.333,73.000 53.071,73.000 52.750 C 73.000 52.429,73.075 52.167,73.167 52.167 C 73.258 52.167,73.333 51.824,73.333 51.405 C 73.333 50.950,73.434 50.542,73.583 50.393 C 73.754 50.222,73.833 49.802,73.833 49.071 C 73.833 48.468,73.906 48.000,74.000 48.000 C 74.100 48.000,74.167 47.329,74.167 46.321 C 74.167 45.052,74.228 44.582,74.417 44.393 C 74.774 44.035,74.787 39.667,74.431 39.667 C 74.301 39.667,74.169 39.723,74.139 39.793 M48.262 78.595 C 47.973 78.884,47.934 79.000,48.127 79.000 C 48.196 79.000,48.347 78.850,48.461 78.667 C 48.711 78.267,48.622 78.235,48.262 78.595 M45.776 80.805 C 45.472 81.141,45.405 81.412,45.666 81.251 C 45.840 81.143,46.225 80.500,46.115 80.500 C 46.080 80.500,45.928 80.637,45.776 80.805 " stroke="none" fill="#0d66a4" fill-rule="evenodd"/><path id="path3" d="M46.444 7.111 C 46.383 7.172,46.333 12.561,46.333 19.085 C 46.333 32.321,46.221 31.107,47.500 31.727 C 47.821 31.882,48.196 32.070,48.333 32.145 C 49.276 32.659,49.333 32.674,49.333 32.418 C 49.333 32.280,49.258 32.167,49.167 32.167 C 48.900 32.167,48.941 8.131,49.208 7.842 C 49.375 7.663,49.375 7.641,49.208 7.735 C 49.082 7.807,49.000 7.755,49.000 7.603 C 49.000 7.432,48.855 7.365,48.542 7.391 C 48.290 7.412,47.984 7.333,47.863 7.215 C 47.633 6.991,46.637 6.918,46.444 7.111 M65.069 19.688 C 64.527 20.066,64.058 20.441,64.028 20.521 C 63.997 20.601,63.866 20.667,63.736 20.667 C 63.606 20.667,63.499 20.723,63.499 20.792 C 63.498 20.860,63.223 21.104,62.888 21.332 C 62.553 21.560,62.084 21.939,61.847 22.173 C 61.611 22.406,61.229 22.726,61.000 22.883 C 60.422 23.278,57.217 26.457,56.686 27.162 C 56.446 27.481,56.022 27.968,55.744 28.246 C 55.465 28.523,55.015 29.046,54.744 29.408 C 54.472 29.770,54.050 30.273,53.805 30.525 C 53.561 30.777,53.114 31.343,52.813 31.783 C 52.512 32.223,52.169 32.682,52.050 32.804 C 51.931 32.925,51.833 33.087,51.833 33.164 C 51.833 33.302,51.031 33.095,50.461 32.811 C 50.301 32.732,50.001 32.671,49.794 32.675 C 49.519 32.682,49.597 32.753,50.083 32.938 C 50.450 33.077,50.880 33.261,51.039 33.346 C 51.624 33.657,51.920 33.487,52.647 32.421 C 53.048 31.832,53.500 31.215,53.652 31.050 C 53.803 30.885,54.325 30.262,54.813 29.667 C 58.051 25.710,62.298 21.727,65.354 19.780 L 66.290 19.184 66.548 19.800 C 66.689 20.139,66.920 20.717,67.060 21.083 C 67.288 21.675,67.317 21.700,67.325 21.302 C 67.329 21.055,67.258 20.807,67.167 20.750 C 67.075 20.693,67.000 20.498,67.000 20.317 C 67.000 19.990,66.371 19.000,66.163 19.000 C 66.104 19.000,65.612 19.309,65.069 19.688 M74.097 19.385 C 73.921 19.494,72.736 20.277,71.462 21.125 C 70.189 21.973,69.111 22.667,69.067 22.667 C 69.022 22.667,68.827 22.815,68.631 22.997 C 68.207 23.393,67.908 23.222,67.748 22.490 C 67.632 21.964,67.333 21.656,67.333 22.064 C 67.333 22.201,67.399 22.354,67.478 22.403 C 67.558 22.453,67.669 22.720,67.724 22.997 C 67.841 23.579,68.083 23.623,68.667 23.167 C 68.896 22.987,69.139 22.839,69.208 22.837 C 69.276 22.835,69.858 22.458,70.500 22.000 C 71.142 21.542,71.736 21.167,71.820 21.167 C 71.904 21.167,71.997 21.110,72.028 21.041 C 72.104 20.867,74.155 19.555,74.667 19.353 C 75.014 19.215,75.028 19.188,74.750 19.187 C 74.567 19.187,74.273 19.276,74.097 19.385 M73.833 39.852 C 73.604 40.039,73.265 40.318,73.080 40.471 C 71.896 41.452,70.642 42.239,68.869 43.111 C 68.385 43.349,68.026 43.582,68.072 43.628 C 68.149 43.705,69.482 43.086,70.246 42.618 C 70.427 42.507,70.990 42.163,71.496 41.853 C 72.002 41.543,72.454 41.241,72.500 41.182 C 72.546 41.123,72.921 40.816,73.333 40.500 C 73.746 40.184,74.121 39.878,74.167 39.821 C 74.212 39.764,74.362 39.674,74.500 39.621 C 74.722 39.537,74.722 39.525,74.500 39.519 C 74.362 39.515,74.063 39.664,73.833 39.852 M67.408 43.803 C 67.321 43.878,66.697 44.119,66.021 44.338 C 65.346 44.557,64.884 44.767,64.996 44.804 C 65.108 44.842,65.361 44.797,65.558 44.705 C 65.755 44.613,66.239 44.441,66.633 44.323 C 67.348 44.108,68.074 43.682,67.742 43.672 C 67.645 43.669,67.495 43.728,67.408 43.803 M63.833 45.009 C 63.604 45.087,63.004 45.260,62.500 45.395 C 61.617 45.631,61.606 45.640,62.208 45.653 C 62.552 45.661,62.833 45.592,62.833 45.500 C 62.833 45.408,63.077 45.331,63.375 45.327 C 63.673 45.324,64.104 45.214,64.333 45.083 C 64.785 44.825,64.503 44.783,63.833 45.009 M60.247 45.898 C 59.941 46.122,59.947 46.153,60.421 46.856 C 60.690 47.256,61.266 48.258,61.700 49.083 C 62.134 49.908,62.492 50.489,62.495 50.373 C 62.498 50.257,62.413 49.994,62.307 49.789 C 62.201 49.584,62.063 49.304,62.001 49.167 C 61.732 48.577,60.948 47.229,60.733 46.987 C 60.605 46.842,60.500 46.642,60.500 46.542 C 60.500 46.443,60.406 46.326,60.292 46.283 C 60.161 46.235,60.208 46.162,60.417 46.089 C 61.334 45.768,61.443 45.690,60.990 45.678 C 60.756 45.672,60.421 45.771,60.247 45.898 M62.585 50.917 C 62.647 51.100,62.822 51.625,62.974 52.083 C 63.190 52.735,63.262 52.831,63.306 52.522 C 63.336 52.306,63.280 52.047,63.181 51.947 C 63.081 51.848,63.000 51.646,63.000 51.499 C 63.000 51.351,62.881 51.085,62.736 50.907 C 62.476 50.588,62.474 50.588,62.585 50.917 M46.371 65.980 C 46.401 75.132,46.360 79.835,46.250 79.838 C 46.158 79.841,46.217 79.922,46.381 80.017 C 46.629 80.161,46.837 80.033,47.607 79.263 C 48.117 78.752,48.602 78.377,48.684 78.427 C 48.766 78.478,48.833 78.403,48.833 78.260 C 48.833 78.117,48.890 78.000,48.958 78.000 C 49.027 78.000,49.062 72.375,49.036 65.500 C 48.994 54.355,49.016 53.000,49.244 53.000 C 49.385 53.000,49.500 53.075,49.500 53.167 C 49.500 53.258,49.748 53.333,50.050 53.333 C 50.352 53.333,50.681 53.415,50.781 53.514 C 50.880 53.614,51.139 53.666,51.356 53.630 C 51.673 53.578,51.604 53.523,51.000 53.348 C 50.587 53.228,50.100 53.068,49.917 52.993 C 49.733 52.918,49.358 52.818,49.083 52.772 C 48.808 52.725,48.283 52.611,47.917 52.518 C 47.550 52.425,47.042 52.298,46.788 52.237 L 46.326 52.126 46.371 65.980 M63.427 53.399 C 63.747 54.674,61.646 56.254,55.500 59.362 C 52.259 61.000,51.784 61.090,52.794 59.874 C 53.569 58.941,54.336 57.605,54.327 57.202 C 54.320 56.820,53.848 57.631,53.839 58.042 C 53.836 58.202,53.758 58.333,53.667 58.333 C 53.575 58.333,53.500 58.427,53.500 58.542 C 53.500 58.656,53.127 59.163,52.672 59.667 C 51.877 60.547,51.662 61.041,51.985 61.241 C 52.144 61.339,53.209 60.842,53.306 60.625 C 53.336 60.556,53.449 60.502,53.556 60.504 C 53.804 60.509,57.232 58.792,57.306 58.625 C 57.336 58.556,57.469 58.500,57.601 58.500 C 57.732 58.500,58.137 58.313,58.500 58.083 C 58.863 57.854,59.201 57.667,59.250 57.667 C 59.395 57.667,60.744 56.763,60.806 56.625 C 60.836 56.556,60.967 56.500,61.097 56.500 C 61.227 56.500,61.333 56.430,61.333 56.345 C 61.333 56.259,61.486 56.141,61.671 56.082 C 62.804 55.722,64.416 53.000,63.497 53.000 C 63.401 53.000,63.371 53.174,63.427 53.399 M52.000 53.917 C 52.114 54.054,52.308 54.167,52.430 54.167 C 52.676 54.167,53.803 55.226,54.115 55.750 C 54.270 56.010,54.316 56.025,54.324 55.819 C 54.337 55.445,53.365 54.411,52.620 54.008 C 51.870 53.602,51.721 53.580,52.000 53.917 " stroke="none" fill="#3c84b4" fill-rule="evenodd"/><path id="path4" d="M83.833 31.732 C 83.833 40.822,83.802 42.143,83.583 42.227 C 83.365 42.311,83.333 43.514,83.333 51.661 L 83.333 61.000 88.750 61.000 L 94.167 61.000 94.167 60.018 C 94.167 59.299,94.234 59.010,94.417 58.940 C 94.633 58.857,94.667 57.967,94.667 52.339 L 94.667 45.833 96.417 45.833 C 97.472 45.833,98.167 45.899,98.167 46.000 C 98.167 46.109,101.278 46.167,107.167 46.167 L 116.167 46.167 116.167 45.655 C 116.167 45.373,116.279 45.030,116.417 44.893 C 116.634 44.676,116.667 43.153,116.667 33.238 L 116.667 21.833 103.684 21.833 C 92.299 21.833,90.691 21.803,90.606 21.583 C 90.526 21.373,89.986 21.333,87.172 21.333 L 83.833 21.333 83.833 31.732 M187.000 30.323 C 187.000 35.582,186.941 38.517,186.833 38.583 C 186.725 38.650,186.667 42.641,186.667 50.010 L 186.667 61.333 190.232 61.333 C 193.248 61.333,193.812 61.372,193.894 61.583 C 193.969 61.780,194.311 61.833,195.495 61.833 L 197.000 61.833 197.000 60.417 C 197.000 59.583,197.069 59.000,197.167 59.000 C 197.274 59.000,197.333 57.139,197.333 53.750 C 197.333 49.194,197.366 48.500,197.583 48.500 C 197.721 48.500,197.833 48.612,197.833 48.750 C 197.833 48.887,197.908 49.000,198.000 49.000 C 198.092 49.000,198.167 49.150,198.167 49.333 C 198.167 49.519,198.278 49.667,198.417 49.667 C 198.554 49.667,198.667 49.779,198.667 49.917 C 198.667 50.054,198.742 50.167,198.833 50.167 C 198.925 50.167,199.002 50.298,199.005 50.458 C 199.012 50.819,199.387 51.333,199.643 51.333 C 199.748 51.333,199.833 51.446,199.833 51.583 C 199.833 51.721,199.908 51.833,200.000 51.833 C 200.092 51.833,200.167 51.983,200.167 52.167 C 200.167 52.352,200.278 52.500,200.417 52.500 C 200.554 52.500,200.667 52.612,200.667 52.750 C 200.667 52.887,200.742 53.000,200.833 53.000 C 200.925 53.000,201.000 53.122,201.000 53.272 C 201.000 53.422,201.262 53.792,201.583 54.094 C 201.904 54.397,202.167 54.799,202.167 54.989 C 202.167 55.184,202.275 55.333,202.417 55.333 C 202.554 55.333,202.667 55.446,202.667 55.583 C 202.667 55.721,202.742 55.833,202.833 55.833 C 202.925 55.833,203.000 55.956,203.000 56.105 C 203.000 56.255,203.262 56.625,203.583 56.927 C 203.904 57.230,204.167 57.633,204.167 57.822 C 204.167 58.012,204.247 58.167,204.345 58.167 C 204.619 58.167,205.000 58.609,205.000 58.927 C 205.000 59.083,205.262 59.458,205.583 59.761 C 205.904 60.063,206.167 60.398,206.167 60.505 C 206.167 60.612,206.423 60.956,206.736 61.269 L 207.304 61.838 212.944 61.794 L 218.583 61.750 218.636 61.207 C 218.672 60.833,218.607 60.633,218.427 60.564 C 218.284 60.509,218.167 60.322,218.167 60.149 C 218.167 59.975,218.092 59.833,218.000 59.833 C 217.908 59.833,217.833 59.721,217.833 59.583 C 217.833 59.446,217.721 59.333,217.583 59.333 C 217.446 59.333,217.333 59.197,217.333 59.031 C 217.333 58.865,217.183 58.569,217.000 58.372 C 216.817 58.175,216.667 57.939,216.667 57.848 C 216.667 57.757,216.479 57.494,216.250 57.265 C 216.021 57.036,215.833 56.743,215.833 56.614 C 215.833 56.485,215.646 56.239,215.417 56.067 C 215.188 55.895,215.000 55.660,215.000 55.544 C 215.000 55.428,214.925 55.333,214.833 55.333 C 214.742 55.333,214.667 55.194,214.667 55.023 C 214.667 54.853,214.479 54.573,214.250 54.400 C 214.021 54.228,213.833 53.918,213.833 53.710 C 213.833 53.503,213.753 53.333,213.655 53.333 C 213.385 53.333,213.000 52.893,213.000 52.583 C 213.000 52.274,212.615 51.833,212.345 51.833 C 212.247 51.833,212.167 51.673,212.167 51.478 C 212.167 51.283,211.904 50.875,211.583 50.573 C 211.262 50.270,211.000 49.899,211.000 49.749 C 211.000 49.441,210.615 49.000,210.345 49.000 C 210.247 49.000,210.167 48.845,210.167 48.655 C 210.167 48.286,209.806 47.833,209.512 47.833 C 209.414 47.833,209.333 47.646,209.333 47.417 C 209.333 47.188,209.258 47.000,209.167 47.000 C 209.075 47.000,209.000 46.887,209.000 46.750 C 209.000 46.612,208.925 46.500,208.833 46.500 C 208.742 46.500,208.667 46.385,208.667 46.245 C 208.667 46.104,208.554 45.946,208.417 45.894 C 208.132 45.784,208.074 45.333,208.345 45.333 C 208.539 45.333,209.000 44.923,209.000 44.750 C 209.000 44.611,209.444 44.167,209.583 44.167 C 209.756 44.167,210.167 43.706,210.167 43.512 C 210.167 43.414,210.247 43.333,210.345 43.333 C 210.539 43.333,211.000 42.923,211.000 42.750 C 211.000 42.611,211.444 42.167,211.583 42.167 C 211.756 42.167,212.167 41.706,212.167 41.512 C 212.167 41.414,212.247 41.333,212.345 41.333 C 212.539 41.333,213.000 40.923,213.000 40.750 C 213.000 40.611,213.444 40.167,213.583 40.167 C 213.756 40.167,214.167 39.706,214.167 39.512 C 214.167 39.414,214.247 39.333,214.345 39.333 C 214.539 39.333,215.000 38.923,215.000 38.750 C 215.000 38.611,215.444 38.167,215.583 38.167 C 215.756 38.167,216.167 37.706,216.167 37.512 C 216.167 37.414,216.247 37.333,216.345 37.333 C 216.539 37.333,217.000 36.923,217.000 36.750 C 217.000 36.611,217.444 36.167,217.583 36.167 C 217.756 36.167,218.167 35.706,218.167 35.512 C 218.167 35.414,218.247 35.333,218.345 35.333 C 218.576 35.333,219.000 34.909,219.000 34.679 C 219.000 34.580,219.075 34.500,219.167 34.500 C 219.258 34.500,219.333 34.350,219.333 34.167 C 219.333 33.839,219.222 33.833,212.660 33.833 L 205.988 33.833 205.259 34.583 C 204.858 34.996,204.448 35.333,204.348 35.333 C 204.248 35.333,204.167 35.405,204.167 35.492 C 204.167 35.699,202.532 37.333,202.325 37.333 C 202.238 37.333,202.167 37.414,202.167 37.512 C 202.167 37.706,201.756 38.167,201.583 38.167 C 201.444 38.167,201.000 38.611,201.000 38.750 C 201.000 38.923,200.539 39.333,200.345 39.333 C 200.247 39.333,200.167 39.414,200.167 39.512 C 200.167 39.706,199.756 40.167,199.583 40.167 C 199.444 40.167,199.000 40.611,199.000 40.750 C 199.000 40.923,198.539 41.333,198.345 41.333 C 198.247 41.333,198.167 41.414,198.167 41.512 C 198.167 41.743,197.743 42.167,197.512 42.167 C 197.387 42.167,197.333 39.793,197.333 34.333 C 197.333 27.481,197.365 26.500,197.583 26.500 C 197.793 26.500,197.833 26.148,197.833 24.333 L 197.833 22.167 192.417 22.167 L 187.000 22.167 187.000 30.323 M222.667 33.333 L 222.667 44.500 234.667 44.500 L 246.667 44.500 246.667 50.333 L 246.667 56.167 237.000 56.167 C 230.667 56.167,227.333 56.109,227.333 56.000 C 227.333 55.896,226.360 55.833,224.746 55.833 L 222.159 55.833 222.204 58.792 L 222.250 61.750 238.458 61.792 C 249.071 61.820,254.667 61.892,254.667 62.001 C 254.667 62.099,255.311 62.167,256.250 62.167 L 257.833 62.167 257.833 51.583 C 257.833 44.639,257.891 41.000,258.000 41.000 C 258.093 41.000,258.167 40.556,258.167 40.000 L 258.167 39.000 246.000 39.000 L 233.833 39.000 233.833 33.583 L 233.833 28.167 245.583 28.167 C 253.306 28.167,257.333 28.110,257.333 28.000 C 257.333 27.908,257.446 27.833,257.583 27.833 C 257.739 27.833,257.833 27.676,257.833 27.417 C 257.833 27.188,257.908 27.000,258.000 27.000 C 258.092 27.000,258.167 26.746,258.167 26.434 C 258.167 26.086,258.262 25.832,258.417 25.773 C 258.554 25.720,258.667 25.525,258.667 25.339 C 258.667 25.152,258.742 25.000,258.833 25.000 C 258.925 25.000,259.000 24.738,259.000 24.417 C 259.000 24.096,259.075 23.833,259.167 23.833 C 259.258 23.833,259.333 23.571,259.333 23.250 L 259.333 22.667 247.995 22.667 C 238.070 22.667,236.644 22.635,236.560 22.417 C 236.477 22.200,235.544 22.167,229.566 22.167 L 222.667 22.167 222.667 33.333 M262.667 35.566 C 262.667 46.921,262.637 48.476,262.415 48.561 C 262.195 48.645,262.168 49.489,262.206 55.204 L 262.250 61.750 264.625 61.796 C 266.021 61.823,267.000 61.909,267.000 62.005 C 267.000 62.104,268.168 62.167,270.000 62.167 L 273.000 62.167 273.000 51.000 L 273.000 39.833 277.165 39.833 L 281.331 39.833 281.374 50.958 L 281.417 62.083 286.792 62.127 L 292.167 62.171 292.167 48.169 L 292.167 34.167 282.750 34.167 L 273.333 34.167 273.333 28.417 L 273.333 22.667 268.000 22.667 L 262.667 22.667 262.667 35.566 M295.833 27.248 L 295.833 31.833 301.000 31.833 L 306.167 31.833 306.167 27.851 C 306.167 24.390,306.201 23.856,306.428 23.769 C 306.598 23.703,306.671 23.509,306.636 23.209 L 306.583 22.750 301.208 22.706 L 295.833 22.662 295.833 27.248 M343.833 28.755 C 343.833 33.717,343.799 34.524,343.583 34.606 C 343.364 34.691,343.333 36.400,343.333 48.601 L 343.333 62.500 348.750 62.500 L 354.167 62.500 354.167 54.934 C 354.167 48.363,354.200 47.356,354.417 47.273 C 354.636 47.189,354.667 45.680,354.667 35.089 L 354.667 23.000 349.250 23.000 L 343.833 23.000 343.833 28.755 M377.333 26.833 C 377.333 29.278,377.273 30.667,377.167 30.667 C 377.065 30.667,377.000 31.417,377.000 32.583 L 377.000 34.500 367.417 34.500 L 357.833 34.500 357.833 43.750 C 357.833 51.903,357.803 53.000,357.581 53.000 C 357.360 53.000,357.334 53.593,357.372 57.708 L 357.417 62.417 372.375 62.459 L 387.333 62.502 387.333 56.751 C 387.333 51.750,387.366 51.000,387.583 51.000 C 387.804 51.000,387.833 49.333,387.833 37.000 L 387.833 23.000 382.583 23.000 L 377.333 23.000 377.333 26.833 M105.333 34.000 L 105.333 40.167 100.000 40.167 L 94.667 40.167 94.667 34.000 L 94.667 27.833 100.000 27.833 L 105.333 27.833 105.333 34.000 M119.833 41.512 C 119.833 48.856,119.799 50.058,119.583 50.274 C 119.372 50.485,119.333 51.328,119.333 55.762 L 119.333 61.000 126.583 61.000 C 131.306 61.000,133.833 61.058,133.833 61.167 C 133.833 61.275,136.333 61.333,141.000 61.333 L 148.167 61.333 148.167 60.917 C 148.167 60.657,148.261 60.500,148.417 60.500 C 148.556 60.500,148.667 60.352,148.667 60.167 C 148.667 59.983,148.742 59.833,148.833 59.833 C 148.925 59.833,149.000 59.646,149.000 59.417 C 149.000 59.188,149.075 59.000,149.167 59.000 C 149.258 59.000,149.333 58.813,149.333 58.583 C 149.333 58.324,149.428 58.167,149.583 58.167 C 149.739 58.167,149.833 58.009,149.833 57.750 C 149.833 57.521,149.908 57.333,150.000 57.333 C 150.092 57.333,150.167 56.996,150.167 56.583 L 150.167 55.833 140.167 55.833 L 130.167 55.833 130.167 53.417 L 130.167 51.000 139.750 51.000 L 149.333 51.000 149.333 42.167 L 149.333 33.333 141.010 33.333 C 135.641 33.333,132.650 33.274,132.583 33.167 C 132.518 33.060,130.193 33.000,126.157 33.000 L 119.833 33.000 119.833 41.512 M153.833 44.316 C 153.833 54.000,153.803 55.309,153.579 55.395 C 153.363 55.478,153.332 55.918,153.371 58.371 L 153.417 61.250 167.375 61.293 L 181.333 61.335 181.333 60.751 C 181.333 60.343,181.409 60.167,181.583 60.167 C 181.739 60.167,181.833 60.009,181.833 59.750 C 181.833 59.521,181.908 59.333,182.000 59.333 C 182.092 59.333,182.167 59.154,182.167 58.934 C 182.167 58.715,182.279 58.492,182.417 58.440 C 182.554 58.387,182.667 58.191,182.667 58.005 C 182.667 57.819,182.742 57.667,182.833 57.667 C 182.925 57.667,183.000 57.404,183.000 57.083 C 183.000 56.762,183.075 56.500,183.167 56.500 C 183.258 56.500,183.333 56.350,183.333 56.167 C 183.333 55.837,183.222 55.833,173.750 55.833 L 164.167 55.833 164.167 47.643 C 164.167 40.039,164.188 39.438,164.458 39.232 C 164.692 39.055,166.453 39.010,173.292 39.005 C 180.771 39.001,181.833 38.969,181.833 38.750 C 181.833 38.612,181.908 38.500,182.000 38.500 C 182.092 38.500,182.167 38.237,182.167 37.917 C 182.167 37.509,182.242 37.333,182.417 37.333 C 182.572 37.333,182.667 37.176,182.667 36.917 C 182.667 36.688,182.742 36.500,182.833 36.500 C 182.925 36.500,183.000 36.237,183.000 35.917 C 183.000 35.596,183.075 35.333,183.167 35.333 C 183.259 35.333,183.333 34.889,183.333 34.333 L 183.333 33.333 168.583 33.333 L 153.833 33.333 153.833 44.316 M295.833 34.982 C 295.833 35.553,295.758 35.826,295.583 35.894 C 295.364 35.978,295.333 37.598,295.333 49.078 L 295.333 62.167 300.583 62.167 L 305.833 62.167 305.833 59.167 C 305.833 57.278,305.895 56.167,306.000 56.167 C 306.109 56.167,306.167 52.389,306.167 45.167 L 306.167 34.167 301.000 34.167 L 295.833 34.167 295.833 34.982 M309.444 34.278 C 309.383 34.339,309.333 40.639,309.333 48.278 L 309.333 62.167 323.750 62.167 L 338.167 62.167 338.167 61.750 C 338.167 61.521,338.240 61.333,338.330 61.333 C 338.420 61.333,338.541 61.146,338.598 60.917 C 338.656 60.688,338.770 60.500,338.851 60.500 C 338.933 60.500,339.000 60.237,339.000 59.917 C 339.000 59.596,339.075 59.333,339.167 59.333 C 339.258 59.333,339.333 59.146,339.333 58.917 C 339.333 58.657,339.428 58.500,339.583 58.500 C 339.721 58.500,339.833 58.354,339.833 58.177 C 339.833 57.999,339.908 57.807,340.000 57.750 C 340.092 57.693,340.167 57.501,340.167 57.323 C 340.167 57.008,339.974 57.000,332.167 57.000 C 325.167 57.000,324.167 56.969,324.167 56.750 C 324.167 56.541,323.815 56.500,322.000 56.500 L 319.833 56.500 319.833 54.167 L 319.833 51.833 326.583 51.833 C 330.972 51.833,333.333 51.892,333.333 52.000 C 333.333 52.105,334.389 52.167,336.167 52.167 L 339.000 52.167 339.000 43.333 C 339.000 35.593,338.969 34.500,338.750 34.500 C 338.612 34.500,338.500 34.425,338.500 34.333 C 338.500 34.145,309.632 34.090,309.444 34.278 M138.667 42.000 L 138.667 45.000 134.417 45.000 L 130.167 45.000 130.167 42.000 L 130.167 39.000 134.417 39.000 L 138.667 39.000 138.667 42.000 M328.667 41.583 C 328.667 42.731,328.619 43.000,328.417 43.000 C 328.212 43.000,328.167 43.287,328.167 44.583 L 328.167 46.167 324.167 46.167 L 320.167 46.167 320.167 43.167 L 320.167 40.167 324.417 40.167 L 328.667 40.167 328.667 41.583 M377.000 48.583 L 377.000 57.000 372.583 57.000 L 368.167 57.000 368.167 49.018 C 368.167 42.076,368.199 41.023,368.417 40.940 C 368.554 40.887,368.667 40.691,368.667 40.505 C 368.667 40.174,368.756 40.167,372.833 40.167 L 377.000 40.167 377.000 48.583 " stroke="none" fill="#ffffff" fill-rule="evenodd"/></g></svg>